<?xml version="1.0" encoding="utf-8"?>
<!-- Generator: Adobe Illustrator 16.0.0, SVG Export Plug-In . SVG Version: 6.00 Build 0)  -->
<!DOCTYPE svg PUBLIC "-//W3C//DTD SVG 1.1//EN" "http://www.w3.org/Graphics/SVG/1.1/DTD/svg11.dtd">
<svg version="1.1" id="Layer_1" xmlns="http://www.w3.org/2000/svg" xmlns:xlink="http://www.w3.org/1999/xlink" x="0px" y="0px"
	  viewBox="0 0 3000 3000" enable-background="new 0 0 3000 3000" xml:space="preserve">
<g>
	<path fill="#00969B" d="M2860.365,1215.789c0-356.942-301.078-647.323-671.138-647.323c-34.165,0-68.907,2.336-103.254,7.298
		c-287.59,41.015-480.024,247.886-587.735,406.519c-108.083-158.625-300.525-365.495-588.017-406.52
		c-34.354-4.985-69.18-7.297-103.253-7.297c-370.251,0-671.246,290.381-671.246,647.323c0,356.985,300.987,647.192,670.956,647.192
		c34.363,0,69.188-2.146,103.519-7.074c287.49-41.238,479.941-248.192,588.016-406.989
		c107.711,158.789,300.154,365.751,587.736,406.989c34.354,4.937,69.064,7.074,103.518,7.074
		C2559.478,1862.965,2860.365,1572.767,2860.365,1215.789 M877.649,1628.591c-23.467,3.4-47.396,5.158-70.954,5.158
		c-243.355,0-441.46-187.671-441.46-417.959c0-230.421,198.113-418.117,441.757-418.117c23.377,0,47.207,1.915,70.748,5.118
		c270.908,38.688,436.822,305.891,493.059,412.859C1314.462,1322.898,1148.666,1589.952,877.649,1628.591 M1625.504,1215.789
		c56.236-107.116,222.034-374.293,492.967-412.981c23.477-3.22,47.479-5.118,70.748-5.118c243.538,0,441.676,187.68,441.676,418.117
		c0,230.288-198.105,417.959-441.387,417.959c-23.467,0-47.396-1.758-71.037-5.158
		C1847.538,1589.952,1681.543,1322.668,1625.504,1215.789"/>
	<rect x="621.996" y="1152.512" fill="#00969B" width="403.035" height="129.874"/>
	<polygon fill="#00969B" points="2233.9,1282.394 2370.105,1282.394 2370.105,1152.512 2233.9,1152.512 2233.9,1015.853 
		2103.655,1015.853 2103.655,1152.512 1967.275,1152.512 1967.275,1282.394 2103.655,1282.394 2103.655,1419.078 2233.9,1419.078 	
		"/>
	<path fill="#00969B" d="M326.407,2055.481l-117.683,374.913h94.966l19.184-76.724h107.803l20.76,76.724h98.573l-119.358-374.913
		H326.407L326.407,2055.481z M340.63,2281.668l34.073-137.328l36.972,137.328H340.63z"/>
	<path fill="#00969B" d="M903.429,2180.717c0-72.053-39.102-125.235-142.908-125.235H609.425v374.913h92.82v-118.806h46.728
		l56.319,118.806h109.677l-73.167-137.278C882.669,2271.209,903.429,2232.207,903.429,2180.717 M751.416,2237.193h-49.155v-105.813
		h47.298c43.294,0,55.122,16.623,55.122,49.864C804.641,2222.904,783.518,2237.193,751.416,2237.193"/>
	<path fill="#00969B" d="M1101.27,2055.481H978.478v374.913h123.344c159.088,0,186.112-102.214,186.112-190.85
		C1287.941,2121.822,1241.37,2055.481,1101.27,2055.481 M1106.388,2353.704h-35.106v-222.365h27.074
		c82.956,0,90.492,39.06,90.492,112.317C1188.873,2307.017,1183.194,2353.704,1106.388,2353.704"/>
	<path fill="#00969B" d="M1562.655,2284.475c0,57.12-15.634,76.014-57.821,76.014c-35.09,0-57.162-14.329-57.162-76.518v-228.481
		h-92.738v245.791c0,113.497,81.941,134.909,145.979,134.909c66.291,0,150.998-23.559,150.998-134.34v-246.36h-89.263v228.96h0.017
		v0.025H1562.655z"/>
	<polygon fill="#00969B" points="1734.891,2132.223 1831.822,2132.223 1831.822,2353.704 1734.891,2353.704 1734.891,2430.395 
		2022.191,2430.395 2022.191,2353.704 1924.617,2353.704 1924.617,2132.223 2022.191,2132.223 2022.191,2055.481 1734.891,2055.481 
			"/>
	<polygon fill="#00969B" points="2321.413,2280.569 2199.917,2055.481 2098.71,2055.481 2098.71,2430.395 2186.619,2430.395 
		2185.959,2190.498 2313.984,2430.395 2407.91,2430.395 2407.91,2055.481 2321.413,2055.481 	"/>
	<path fill="#00969B" d="M2626.594,2050.611c-113.671,0-156.867,83.41-156.867,196.495c0,123.989,49.617,189.075,157.328,189.075
		c120.563,0,160.218-84.657,160.218-193.119C2787.272,2099.948,2733.289,2050.611,2626.594,2050.611 M2627.055,2360.488
		c-53.513,0-58.837-37.887-58.837-113.382c0-91.623,8.759-121.124,58.376-121.124c54.734,0,62.172,25.522,62.172,117.08
		C2688.781,2329.485,2681.328,2360.488,2627.055,2360.488"/>
	<g>
		<path fill="#00969B" d="M2858.6,607.699c-3.814-8.84-8.842-16.427-15.362-22.856c-6.339-6.406-13.884-11.49-22.435-15.345
			c-8.668-3.772-17.971-5.687-27.941-5.687c-10.055,0-19.365,1.915-27.916,5.687c-8.668,3.863-16.212,8.931-22.543,15.345
			c-6.404,6.414-11.523,14.007-15.354,22.856c-3.821,8.757-5.687,18.391-5.687,28.824c0,10.012,1.866,19.489,5.687,28.494
			c3.814,9.022,8.932,16.708,15.354,23.087c6.348,6.455,13.893,11.589,22.543,15.419c8.559,3.814,17.887,5.671,27.916,5.671
			c9.971,0,19.273-1.849,27.941-5.671c8.56-3.822,16.096-8.931,22.435-15.419c6.505-6.372,11.524-14.048,15.362-23.087
			c3.73-8.981,5.678-18.481,5.678-28.494C2864.286,626.09,2862.321,616.457,2858.6,607.699z M2842.874,658.538
			c-2.79,6.785-6.776,12.703-11.82,17.763c-5.117,5.117-10.896,9.22-17.309,12.2c-6.414,3.021-13.406,4.523-20.859,4.523
			c-7.545,0-14.618-1.502-21.205-4.523c-6.629-2.979-12.382-7.083-17.317-12.2c-4.854-5.069-8.668-10.987-11.523-17.763
			c-2.815-6.793-4.201-14.156-4.201-22.007c0-7.916,1.386-15.37,4.201-22.345c2.889-7,6.703-12.992,11.523-18.061
			c4.936-5.076,10.697-9.087,17.317-11.861c6.62-2.856,13.686-4.285,21.205-4.285c7.453,0,14.421,1.437,20.859,4.285
			c6.397,2.797,12.199,6.785,17.309,11.861c5.027,5.077,9.03,11.069,11.82,18.061c2.815,6.992,4.202,14.421,4.202,22.345
			C2847.06,644.406,2845.655,651.736,2842.874,658.538z"/>
		<path fill="#00969B" d="M2808.437,643.556c4.095-2.047,7.157-4.854,9.394-8.428c2.146-3.606,3.27-7.685,3.27-12.019
			c0-6.793-2.427-12.744-7.256-17.729c-4.73-4.986-12.934-7.545-24.565-7.545c-4.366,0-8.312,0.091-11.746,0.33
			c-3.425,0.239-6.702,0.512-9.839,0.924v71.458h17.97V647.13h7.255l12.572,23.418h20.471L2808.437,643.556z M2790.45,633.873
			c-2.427,0-4.284-0.132-5.406-0.553v-19.233c1.14-0.371,3.187-0.586,5.96-0.586c7.635,0,11.457,3.343,11.457,10.178
			C2802.469,630.522,2798.458,633.873,2790.45,633.873z"/>
	</g>
</g>
</svg>
